STARTFONT 2.1
COMMENT $Id: g08x10.bdf,v 1.3 1995/02/10 17:53:37 pierre Exp $
FONT -Lectra-Minitel-Medium-R-Normal--10-100-75-75-C-80-ISO2022-0
SIZE 10 75 75
FONTBOUNDINGBOX 8 10 0 -2
STARTPROPERTIES 19
FONTNAME_REGISTRY ""
FOUNDRY "Lectra"
FAMILY_NAME "Minitel"
WEIGHT_NAME "Medium"
SLANT "R"
SETWIDTH_NAME "Normal"
ADD_STYLE_NAME ""
PIXEL_SIZE 10
POINT_SIZE 100
RESOLUTION_X 75
RESOLUTION_Y 75
SPACING "C"
AVERAGE_WIDTH 80
CHARSET_REGISTRY "ISO2022-0"
CHARSET_ENCODING "1"
FONT_ASCENT 8
FONT_DESCENT 2
DEFAULT_CHAR 32
COPYRIGHT "Copyright 1991 Lectra-Systemes"
ENDPROPERTIES
CHARS 116
STARTCHAR C000
ENCODING 0
SWIDTH 666 0
DWIDTH 8 0
BBX 8 10 0 -2
BITMAP
00
30
48
40
40
f0
40
40
f8
00
ENDCHAR
STARTCHAR C001
ENCODING 1
SWIDTH 666 0
DWIDTH 8 0
BBX 8 10 0 -2
BITMAP
00
00
00
20
60
FF
60
20
00
00
ENDCHAR
STARTCHAR C002
ENCODING 2
SWIDTH 666 0
DWIDTH 8 0
BBX 8 10 0 -2
BITMAP
00
08
1C
3E
08
08
08
08
08
08
ENDCHAR
STARTCHAR C003
ENCODING 3
SWIDTH 666 0
DWIDTH 8 0
BBX 8 10 0 -2
BITMAP
00
00
00
04
06
FF
06
04
00
00
ENDCHAR
STARTCHAR C004
ENCODING 4
SWIDTH 666 0
DWIDTH 8 0
BBX 8 10 0 -2
BITMAP
00
08
08
08
08
08
08
3E
1C
08
ENDCHAR
STARTCHAR C005
ENCODING 5
SWIDTH 666 0
DWIDTH 8 0
BBX 8 10 0 -2
BITMAP
60
90
90
60
00
00
00
00
00
00
ENDCHAR
STARTCHAR C006
ENCODING 6
SWIDTH 666 0
DWIDTH 8 0
BBX 8 10 0 -2
BITMAP
00
00
20
20
F8
20
20
F8
00
00
ENDCHAR
STARTCHAR C007
ENCODING 7
SWIDTH 666 0
DWIDTH 8 0
BBX 8 10 0 -2
BITMAP
00
00
08
00
7F
00
08
00
00
00
ENDCHAR
STARTCHAR C008
ENCODING 8
SWIDTH 666 0
DWIDTH 8 0
BBX 8 10 0 -2
BITMAP
00
84
88
88
92
96
2a
2f
42
00
ENDCHAR
STARTCHAR C009
ENCODING 9
SWIDTH 666 0
DWIDTH 8 0
BBX 8 10 0 -2
BITMAP
00
84
88
88
96
99
23
24
4f
00
ENDCHAR
STARTCHAR C010
ENCODING 10
SWIDTH 666 0
DWIDTH 8 0
BBX 8 10 0 -2
BITMAP
00
e2
24
64
2a
ee
1a
1f
22
00
ENDCHAR
STARTCHAR C011
ENCODING 11
SWIDTH 666 0
DWIDTH 8 0
BBX 8 10 0 -2
BITMAP
00
30
18
00
00
00
00
00
00
00
ENDCHAR
STARTCHAR C012
ENCODING 12
SWIDTH 666 0
DWIDTH 8 0
BBX 8 10 0 -2
BITMAP
00
06
0C
00
00
00
00
00
00
00
ENDCHAR
STARTCHAR C013
ENCODING 13
SWIDTH 666 0
DWIDTH 8 0
BBX 8 10 0 -2
BITMAP
00
1C
36
00
00
00
00
00
00
00
ENDCHAR
STARTCHAR C014
ENCODING 14
SWIDTH 666 0
DWIDTH 8 0
BBX 8 10 0 -2
BITMAP
00
36
00
00
00
00
00
00
00
00
ENDCHAR
STARTCHAR C015
ENCODING 15
SWIDTH 666 0
DWIDTH 8 0
BBX 8 10 0 -2
BITMAP
00
00
00
00
00
00
00
00
18
38
ENDCHAR
STARTCHAR C016
ENCODING 16
SWIDTH 666 0
DWIDTH 8 0
BBX 8 10 0 -2
BITMAP
00
3F
48
88
8E
88
48
3F
00
00
ENDCHAR
STARTCHAR C017
ENCODING 17
SWIDTH 666 0
DWIDTH 8 0
BBX 8 10 0 -2
BITMAP
00
00
00
77
89
8F
88
77
00
00
ENDCHAR
STARTCHAR C018
ENCODING 18
SWIDTH 666 0
DWIDTH 8 0
BBX 8 10 0 -2
BITMAP
00
30
48
88
90
b0
8c
a4
d8
00
ENDCHAR
STARTCHAR C019
ENCODING 19
SWIDTH 666 0
DWIDTH 8 0
BBX 8 10 0 -2
BITMAP
70
88
c0
70
88
88
70
18
88
70
ENDCHAR
STARTCHAR C040
ENCODING 32
SWIDTH 666 0
DWIDTH 8 0
BBX 8 10 0 -2
BITMAP
00
00
00
00
00
00
00
00
00
00
ENDCHAR
STARTCHAR !
ENCODING 33
SWIDTH 666 0
DWIDTH 8 0
BBX 8 10 0 -2
BITMAP
08
08
08
08
08
08
00
08
00
00
ENDCHAR
STARTCHAR "
ENCODING 34
SWIDTH 666 0
DWIDTH 8 0
BBX 8 10 0 -2
BITMAP
14
14
14
00
00
00
00
00
00
00
ENDCHAR
STARTCHAR #
ENCODING 35
SWIDTH 666 0
DWIDTH 8 0
BBX 8 10 0 -2
BITMAP
24
24
7e
24
24
7e
24
24
00
00
ENDCHAR
STARTCHAR $
ENCODING 36
SWIDTH 666 0
DWIDTH 8 0
BBX 8 10 0 -2
BITMAP
00
08
1e
28
1c
0a
3c
08
00
00
ENDCHAR
STARTCHAR %
ENCODING 37
SWIDTH 666 0
DWIDTH 8 0
BBX 8 10 0 -2
BITMAP
00
22
54
24
08
12
15
22
00
00
ENDCHAR
STARTCHAR &
ENCODING 38
SWIDTH 666 0
DWIDTH 8 0
BBX 8 10 0 -2
BITMAP
00
38
40
20
30
4a
44
3a
00
00
ENDCHAR
STARTCHAR '
ENCODING 39
SWIDTH 666 0
DWIDTH 8 0
BBX 8 10 0 -2
BITMAP
0c
08
10
00
00
00
00
00
00
00
ENDCHAR
STARTCHAR (
ENCODING 40
SWIDTH 666 0
DWIDTH 8 0
BBX 8 10 0 -2
BITMAP
04
08
08
10
10
10
08
08
04
00
ENDCHAR
STARTCHAR )
ENCODING 41
SWIDTH 666 0
DWIDTH 8 0
BBX 8 10 0 -2
BITMAP
10
08
08
04
04
04
08
08
10
00
ENDCHAR
STARTCHAR *
ENCODING 42
SWIDTH 666 0
DWIDTH 8 0
BBX 8 10 0 -2
BITMAP
00
08
08
6b
1c
08
14
22
00
00
ENDCHAR
STARTCHAR +
ENCODING 43
SWIDTH 666 0
DWIDTH 8 0
BBX 8 10 0 -2
BITMAP
00
08
08
08
7f
08
08
08
00
00
ENDCHAR
STARTCHAR ,
ENCODING 44
SWIDTH 666 0
DWIDTH 8 0
BBX 8 10 0 -2
BITMAP
00
00
00
00
00
00
18
10
20
00
ENDCHAR
STARTCHAR -
ENCODING 45
SWIDTH 666 0
DWIDTH 8 0
BBX 8 10 0 -2
BITMAP
00
00
00
00
7f
00
00
00
00
00
ENDCHAR
STARTCHAR .
ENCODING 46
SWIDTH 666 0
DWIDTH 8 0
BBX 8 10 0 -2
BITMAP
00
00
00
00
00
00
18
18
00
00
ENDCHAR
STARTCHAR /
ENCODING 47
SWIDTH 666 0
DWIDTH 8 0
BBX 8 10 0 -2
BITMAP
01
02
04
04
08
10
20
20
40
80
ENDCHAR
STARTCHAR 0
ENCODING 48
SWIDTH 666 0
DWIDTH 8 0
BBX 8 10 0 -2
BITMAP
3c
42
42
42
42
42
42
3c
00
00
ENDCHAR
STARTCHAR 1
ENCODING 49
SWIDTH 666 0
DWIDTH 8 0
BBX 8 10 0 -2
BITMAP
08
18
08
08
08
08
08
08
00
00
ENDCHAR
STARTCHAR 2
ENCODING 50
SWIDTH 666 0
DWIDTH 8 0
BBX 8 10 0 -2
BITMAP
3c
42
02
04
08
10
20
7e
00
00
ENDCHAR
STARTCHAR 3
ENCODING 51
SWIDTH 666 0
DWIDTH 8 0
BBX 8 10 0 -2
BITMAP
3c
42
02
1c
02
02
42
3c
00
00
ENDCHAR
STARTCHAR 4
ENCODING 52
SWIDTH 666 0
DWIDTH 8 0
BBX 8 10 0 -2
BITMAP
0c
0c
14
14
24
7e
04
0e
00
00
ENDCHAR
STARTCHAR 5
ENCODING 53
SWIDTH 666 0
DWIDTH 8 0
BBX 8 10 0 -2
BITMAP
7e
40
40
7c
02
02
42
3c
00
00
ENDCHAR
STARTCHAR 6
ENCODING 54
SWIDTH 666 0
DWIDTH 8 0
BBX 8 10 0 -2
BITMAP
1c
20
40
7c
42
42
42
3c
00
00
ENDCHAR
STARTCHAR 7
ENCODING 55
SWIDTH 666 0
DWIDTH 8 0
BBX 8 10 0 -2
BITMAP
7e
42
04
04
08
08
10
10
00
00
ENDCHAR
STARTCHAR 8
ENCODING 56
SWIDTH 666 0
DWIDTH 8 0
BBX 8 10 0 -2
BITMAP
3c
42
42
3c
42
42
42
3c
00
00
ENDCHAR
STARTCHAR 9
ENCODING 57
SWIDTH 666 0
DWIDTH 8 0
BBX 8 10 0 -2
BITMAP
3c
42
42
42
3e
02
04
38
00
00
ENDCHAR
STARTCHAR :
ENCODING 58
SWIDTH 666 0
DWIDTH 8 0
BBX 8 10 0 -2
BITMAP
00
00
18
18
00
00
18
18
00
00
ENDCHAR
STARTCHAR ;
ENCODING 59
SWIDTH 666 0
DWIDTH 8 0
BBX 8 10 0 -2
BITMAP
00
00
18
18
00
00
18
10
20
00
ENDCHAR
STARTCHAR <
ENCODING 60
SWIDTH 666 0
DWIDTH 8 0
BBX 8 10 0 -2
BITMAP
00
00
06
18
60
18
06
00
00
00
ENDCHAR
STARTCHAR =
ENCODING 61
SWIDTH 666 0
DWIDTH 8 0
BBX 8 10 0 -2
BITMAP
00
00
00
7f
00
00
7f
00
00
00
ENDCHAR
STARTCHAR >
ENCODING 62
SWIDTH 666 0
DWIDTH 8 0
BBX 8 10 0 -2
BITMAP
00
00
60
18
06
18
60
00
00
00
ENDCHAR
STARTCHAR ?
ENCODING 63
SWIDTH 666 0
DWIDTH 8 0
BBX 8 10 0 -2
BITMAP
3c
42
02
04
08
08
00
08
00
00
ENDCHAR
STARTCHAR @
ENCODING 64
SWIDTH 666 0
DWIDTH 8 0
BBX 8 10 0 -2
BITMAP
00
1c
22
49
55
4a
20
1c
00
00
ENDCHAR
STARTCHAR A
ENCODING 65
SWIDTH 666 0
DWIDTH 8 0
BBX 8 10 0 -2
BITMAP
00
3e
41
41
7f
41
41
41
00
00
ENDCHAR
STARTCHAR B
ENCODING 66
SWIDTH 666 0
DWIDTH 8 0
BBX 8 10 0 -2
BITMAP
00
7e
41
41
7e
41
41
7e
00
00
ENDCHAR
STARTCHAR C
ENCODING 67
SWIDTH 666 0
DWIDTH 8 0
BBX 8 10 0 -2
BITMAP
00
1e
21
40
40
40
21
1e
00
00
ENDCHAR
STARTCHAR D
ENCODING 68
SWIDTH 666 0
DWIDTH 8 0
BBX 8 10 0 -2
BITMAP
00
7c
42
41
41
41
42
7c
00
00
ENDCHAR
STARTCHAR E
ENCODING 69
SWIDTH 666 0
DWIDTH 8 0
BBX 8 10 0 -2
BITMAP
00
7f
40
40
7c
40
40
7f
00
00
ENDCHAR
STARTCHAR F
ENCODING 70
SWIDTH 666 0
DWIDTH 8 0
BBX 8 10 0 -2
BITMAP
00
7f
40
40
7c
40
40
40
00
00
ENDCHAR
STARTCHAR G
ENCODING 71
SWIDTH 666 0
DWIDTH 8 0
BBX 8 10 0 -2
BITMAP
00
1e
21
40
47
41
21
1f
00
00
ENDCHAR
STARTCHAR H
ENCODING 72
SWIDTH 666 0
DWIDTH 8 0
BBX 8 10 0 -2
BITMAP
00
41
41
41
7f
41
41
41
00
00
ENDCHAR
STARTCHAR I
ENCODING 73
SWIDTH 666 0
DWIDTH 8 0
BBX 8 10 0 -2
BITMAP
00
3e
08
08
08
08
08
3e
00
00
ENDCHAR
STARTCHAR J
ENCODING 74
SWIDTH 666 0
DWIDTH 8 0
BBX 8 10 0 -2
BITMAP
00
0e
02
02
02
42
42
3c
00
00
ENDCHAR
STARTCHAR K
ENCODING 75
SWIDTH 666 0
DWIDTH 8 0
BBX 8 10 0 -2
BITMAP
00
42
44
48
70
48
44
42
00
00
ENDCHAR
STARTCHAR L
ENCODING 76
SWIDTH 666 0
DWIDTH 8 0
BBX 8 10 0 -2
BITMAP
00
40
40
40
40
40
40
7e
00
00
ENDCHAR
STARTCHAR M
ENCODING 77
SWIDTH 666 0
DWIDTH 8 0
BBX 8 10 0 -2
BITMAP
00
41
63
55
49
41
41
41
00
00
ENDCHAR
STARTCHAR N
ENCODING 78
SWIDTH 666 0
DWIDTH 8 0
BBX 8 10 0 -2
BITMAP
00
41
61
51
49
45
43
41
00
00
ENDCHAR
STARTCHAR O
ENCODING 79
SWIDTH 666 0
DWIDTH 8 0
BBX 8 10 0 -2
BITMAP
00
1c
22
41
41
41
22
1c
00
00
ENDCHAR
STARTCHAR P
ENCODING 80
SWIDTH 666 0
DWIDTH 8 0
BBX 8 10 0 -2
BITMAP
00
7e
41
41
7e
40
40
40
00
00
ENDCHAR
STARTCHAR Q
ENCODING 81
SWIDTH 666 0
DWIDTH 8 0
BBX 8 10 0 -2
BITMAP
00
1c
22
41
41
41
22
1c
07
00
ENDCHAR
STARTCHAR R
ENCODING 82
SWIDTH 666 0
DWIDTH 8 0
BBX 8 10 0 -2
BITMAP
00
7e
41
41
7e
44
42
41
00
00
ENDCHAR
STARTCHAR S
ENCODING 83
SWIDTH 666 0
DWIDTH 8 0
BBX 8 10 0 -2
BITMAP
00
3e
41
40
3e
01
41
3e
00
00
ENDCHAR
STARTCHAR T
ENCODING 84
SWIDTH 666 0
DWIDTH 8 0
BBX 8 10 0 -2
BITMAP
00
7f
08
08
08
08
08
08
00
00
ENDCHAR
STARTCHAR U
ENCODING 85
SWIDTH 666 0
DWIDTH 8 0
BBX 8 10 0 -2
BITMAP
00
41
41
41
41
41
41
3e
00
00
ENDCHAR
STARTCHAR V
ENCODING 86
SWIDTH 666 0
DWIDTH 8 0
BBX 8 10 0 -2
BITMAP
00
63
22
22
14
14
08
08
00
00
ENDCHAR
STARTCHAR W
ENCODING 87
SWIDTH 666 0
DWIDTH 8 0
BBX 8 10 0 -2
BITMAP
00
41
41
41
49
55
63
41
00
00
ENDCHAR
STARTCHAR X
ENCODING 88
SWIDTH 666 0
DWIDTH 8 0
BBX 8 10 0 -2
BITMAP
00
41
22
14
08
14
22
41
00
00
ENDCHAR
STARTCHAR Y
ENCODING 89
SWIDTH 666 0
DWIDTH 8 0
BBX 8 10 0 -2
BITMAP
00
41
22
14
08
08
08
08
00
00
ENDCHAR
STARTCHAR Z
ENCODING 90
SWIDTH 666 0
DWIDTH 8 0
BBX 8 10 0 -2
BITMAP
00
7f
02
04
08
10
20
7f
00
00
ENDCHAR
STARTCHAR [
ENCODING 91
SWIDTH 666 0
DWIDTH 8 0
BBX 8 10 0 -2
BITMAP
0e
08
08
08
08
08
08
08
0e
00
ENDCHAR
STARTCHAR \
ENCODING 92
SWIDTH 666 0
DWIDTH 8 0
BBX 8 10 0 -2
BITMAP
80
40
20
20
10
08
04
04
02
01
ENDCHAR
STARTCHAR ]
ENCODING 93
SWIDTH 666 0
DWIDTH 8 0
BBX 8 10 0 -2
BITMAP
38
08
08
08
08
08
08
08
38
00
ENDCHAR
STARTCHAR ^
ENCODING 94
SWIDTH 666 0
DWIDTH 8 0
BBX 8 10 0 -2
BITMAP
08
14
22
00
00
00
00
00
00
00
ENDCHAR
STARTCHAR _
ENCODING 95
SWIDTH 666 0
DWIDTH 8 0
BBX 8 10 0 -2
BITMAP
00
00
00
00
00
00
00
00
00
ff
ENDCHAR
STARTCHAR `
ENCODING 96
SWIDTH 666 0
DWIDTH 8 0
BBX 8 10 0 -2
BITMAP
00
00
00
00
00
ff
00
00
00
00
ENDCHAR
STARTCHAR a
ENCODING 97
SWIDTH 666 0
DWIDTH 8 0
BBX 8 10 0 -2
BITMAP
00
00
00
3f
41
41
43
3d
00
00
ENDCHAR
STARTCHAR b
ENCODING 98
SWIDTH 666 0
DWIDTH 8 0
BBX 8 10 0 -2
BITMAP
40
40
40
7e
41
41
41
7e
00
00
ENDCHAR
STARTCHAR c
ENCODING 99
SWIDTH 666 0
DWIDTH 8 0
BBX 8 10 0 -2
BITMAP
00
00
00
3e
40
40
40
3e
00
00
ENDCHAR
STARTCHAR d
ENCODING 100
SWIDTH 666 0
DWIDTH 8 0
BBX 8 10 0 -2
BITMAP
01
01
01
3f
41
41
41
3f
00
00
ENDCHAR
STARTCHAR e
ENCODING 101
SWIDTH 666 0
DWIDTH 8 0
BBX 8 10 0 -2
BITMAP
00
00
00
3e
41
7f
40
3e
00
00
ENDCHAR
STARTCHAR f
ENCODING 102
SWIDTH 666 0
DWIDTH 8 0
BBX 8 10 0 -2
BITMAP
1e
20
20
78
20
20
20
20
00
00
ENDCHAR
STARTCHAR g
ENCODING 103
SWIDTH 666 0
DWIDTH 8 0
BBX 8 10 0 -2
BITMAP
00
00
00
3f
41
41
41
3f
01
3e
ENDCHAR
STARTCHAR h
ENCODING 104
SWIDTH 666 0
DWIDTH 8 0
BBX 8 10 0 -2
BITMAP
40
40
40
7e
41
41
41
41
00
00
ENDCHAR
STARTCHAR i
ENCODING 105
SWIDTH 666 0
DWIDTH 8 0
BBX 8 10 0 -2
BITMAP
08
08
00
38
08
08
08
3e
00
00
ENDCHAR
STARTCHAR j
ENCODING 106
SWIDTH 666 0
DWIDTH 8 0
BBX 8 10 0 -2
BITMAP
02
02
00
1e
02
02
02
02
02
3c
ENDCHAR
STARTCHAR k
ENCODING 107
SWIDTH 666 0
DWIDTH 8 0
BBX 8 10 0 -2
BITMAP
40
40
40
46
48
70
48
46
00
00
ENDCHAR
STARTCHAR l
ENCODING 108
SWIDTH 666 0
DWIDTH 8 0
BBX 8 10 0 -2
BITMAP
18
08
08
08
08
08
08
1c
00
00
ENDCHAR
STARTCHAR m
ENCODING 109
SWIDTH 666 0
DWIDTH 8 0
BBX 8 10 0 -2
BITMAP
00
00
00
76
49
49
49
41
00
00
ENDCHAR
STARTCHAR n
ENCODING 110
SWIDTH 666 0
DWIDTH 8 0
BBX 8 10 0 -2
BITMAP
00
00
00
5e
61
41
41
41
00
00
ENDCHAR
STARTCHAR o
ENCODING 111
SWIDTH 666 0
DWIDTH 8 0
BBX 8 10 0 -2
BITMAP
00
00
00
3e
41
41
41
3e
00
00
ENDCHAR
STARTCHAR p
ENCODING 112
SWIDTH 666 0
DWIDTH 8 0
BBX 8 10 0 -2
BITMAP
00
00
00
7e
41
41
41
7e
40
40
ENDCHAR
STARTCHAR q
ENCODING 113
SWIDTH 666 0
DWIDTH 8 0
BBX 8 10 0 -2
BITMAP
00
00
00
3f
41
41
41
3f
01
01
ENDCHAR
STARTCHAR r
ENCODING 114
SWIDTH 666 0
DWIDTH 8 0
BBX 8 10 0 -2
BITMAP
00
00
00
2e
30
20
20
20
00
00
ENDCHAR
STARTCHAR s
ENCODING 115
SWIDTH 666 0
DWIDTH 8 0
BBX 8 10 0 -2
BITMAP
00
00
00
3e
40
3c
02
7c
00
00
ENDCHAR
STARTCHAR t
ENCODING 116
SWIDTH 666 0
DWIDTH 8 0
BBX 8 10 0 -2
BITMAP
10
10
10
7e
10
10
10
0e
00
00
ENDCHAR
STARTCHAR u
ENCODING 117
SWIDTH 666 0
DWIDTH 8 0
BBX 8 10 0 -2
BITMAP
00
00
00
41
41
41
43
3d
00
00
ENDCHAR
STARTCHAR v
ENCODING 118
SWIDTH 666 0
DWIDTH 8 0
BBX 8 10 0 -2
BITMAP
00
00
00
63
22
14
14
08
00
00
ENDCHAR
STARTCHAR w
ENCODING 119
SWIDTH 666 0
DWIDTH 8 0
BBX 8 10 0 -2
BITMAP
00
00
00
41
49
49
49
36
00
00
ENDCHAR
STARTCHAR x
ENCODING 120
SWIDTH 666 0
DWIDTH 8 0
BBX 8 10 0 -2
BITMAP
00
00
00
63
14
08
14
63
00
00
ENDCHAR
STARTCHAR y
ENCODING 121
SWIDTH 666 0
DWIDTH 8 0
BBX 8 10 0 -2
BITMAP
00
00
00
42
42
42
42
3e
02
3c
ENDCHAR
STARTCHAR z
ENCODING 122
SWIDTH 666 0
DWIDTH 8 0
BBX 8 10 0 -2
BITMAP
00
00
00
7e
04
18
20
7e
00
00
ENDCHAR
STARTCHAR {
ENCODING 123
SWIDTH 666 0
DWIDTH 8 0
BBX 8 10 0 -2
BITMAP
80
80
80
80
80
80
80
80
80
80
ENDCHAR
STARTCHAR |
ENCODING 124
SWIDTH 666 0
DWIDTH 8 0
BBX 8 10 0 -2
BITMAP
08
08
08
08
08
08
08
08
08
08
ENDCHAR
STARTCHAR }
ENCODING 125
SWIDTH 666 0
DWIDTH 8 0
BBX 8 10 0 -2
BITMAP
01
01
01
01
01
01
01
01
01
01
ENDCHAR
STARTCHAR C126
ENCODING 126
SWIDTH 666 0
DWIDTH 8 0
BBX 8 10 0 -2
BITMAP
ff
00
00
00
00
00
00
00
00
00
ENDCHAR
STARTCHAR C127
ENCODING 127
SWIDTH 666 0
DWIDTH 8 0
BBX 8 10 0 -2
BITMAP
ff
ff
ff
ff
ff
ff
ff
ff
ff
ff
ENDCHAR
ENDFONT
